<svg width="40" height="34" viewBox="0 0 40 34" fill="none" xmlns="http://www.w3.org/2000/svg">
<g clip-path="url(#clip0_22_1865)">
<path d="M36.2779 34L36.2182 33.9519L36.1626 33.6717L35.1085 28.3513V28.351L34.5602 25.5839L36.0174 26.7456L36.2779 34Z" fill="#052643"/>
<path d="M36.2182 33.9519L36.0572 33.822L35.6625 31.8747L34.354 25.4193L34.5602 25.5837V25.5838L35.1085 28.351V28.3513L35.1331 28.9614L35.9558 32.8885L36.1627 33.6717L36.2182 33.9519Z" fill="#207299"/>
<path d="M36.0572 33.822L35.5144 33.3845H35.5143C35.5055 33.3655 34.8335 31.9455 34.1473 30.5095C34.1473 30.5095 34.1471 30.5093 34.1469 30.509C33.6608 29.491 33.1672 28.4649 32.8982 27.9246C32.247 26.6167 31.253 24.814 30.9171 24.0077C30.5864 23.2138 30.0557 22.0171 30.0392 21.9799C30.0392 21.9797 30.0391 21.9795 30.0391 21.9794L30.5972 22.4243C30.5972 22.4243 31.662 24.7124 32.3566 26.2395C33.0513 27.7665 35.6625 31.8747 35.6625 31.8747L36.0572 33.822Z" fill="url(#paint0_linear_22_1865)"/>
<path d="M35.5143 33.3844L32.8467 31.2336L31.4378 26.5902C31.4622 26.6228 32.6025 28.1573 33.1382 28.9886C33.6713 29.8157 34.1326 30.4882 34.1469 30.509C34.1471 30.5093 34.1473 30.5095 34.1473 30.5095C34.8335 31.9456 35.5055 33.3655 35.5143 33.3844Z" fill="#21779F"/>
<path d="M34.1469 30.509C34.1326 30.4882 33.6713 29.8157 33.1382 28.9886C32.6024 28.1573 31.4621 26.6227 31.4378 26.5902L31.4376 26.5896L30.0392 21.9799C30.0557 22.0171 30.5864 23.2138 30.9171 24.0077C31.253 24.814 32.247 26.6167 32.8982 27.9245C33.1673 28.4649 33.6608 29.491 34.1469 30.509Z" fill="#0D668F"/>
<path d="M31.0132 29.1218L21.4569 19.3994L21.1827 19.535L20.3772 20.2983L19.8741 20.7752L18.0109 21.5022L19.0321 20.4169L19.3827 20.0445L19.6926 19.7152L22.9101 16.2957L29.1321 21.2561L30.2034 25.7357L31.0132 29.1218Z" fill="url(#paint1_linear_22_1865)"/>
<path d="M32.8467 31.2336L26.4687 26.0917L20.3772 20.2983L21.1827 19.535L31.8787 30.2627L31.8789 30.263L32.8467 31.2336Z" fill="#032946"/>
<path d="M26.4687 26.0917L19.874 20.7752L20.3772 20.2982L26.4687 26.0917Z" fill="#19719B"/>
<path d="M36.1626 33.6717L35.9557 32.8885L35.133 28.9614L35.1085 28.3513L36.1626 33.6717Z" fill="#052642"/>
<path d="M35.6625 31.8747C35.6625 31.8747 33.0513 27.7665 32.3567 26.2395C31.662 24.7124 30.5972 22.4243 30.5972 22.4243L34.354 25.4193L35.6625 31.8747Z" fill="url(#paint2_linear_22_1865)"/>
<path d="M32.8466 31.2335L31.8789 30.263V30.2627L30.2034 25.7357L29.1321 21.2561L30.0389 21.979C30.0389 21.979 30.0389 21.9791 30.039 21.9793C30.039 21.9795 30.0392 21.9797 30.0392 21.9798L31.4376 26.5896C31.4376 26.5896 31.4376 26.5898 31.4378 26.59L32.8466 31.2335Z" fill="url(#paint3_linear_22_1865)"/>
<path d="M31.8787 30.2627L21.1827 19.535L21.4569 19.3994L31.0131 29.1217L30.2034 25.7357L31.8787 30.2627Z" fill="#198CB0"/>
<path d="M30.2034 17.0765L30.2031 17.0757" stroke="#33FF00" stroke-miterlimit="10"/>
<path d="M19.6925 19.7152L19.3826 20.0446L18.9103 19.5351L14.6012 14.8857L14.5328 14.8119C14.6732 14.8832 14.7672 14.9309 14.8004 14.9473C15.0814 15.0862 15.4345 15.2386 15.7155 15.5368C15.9965 15.8351 19.6925 19.7152 19.6925 19.7152Z" fill="#0B5B79"/>
<path d="M19.0321 20.4169L18.0109 21.5022L17.2876 21.7845C17.2876 21.7845 16.7968 21.4282 16.0087 20.8566H16.0085V20.8562L12.9411 16.4781L12.9427 16.4792L19.0321 20.4169Z" fill="#1680A1"/>
<path d="M17.2875 21.7845L16.6162 22.0465L12.2496 19.9036C8.67995 16.7689 3.05129 11.7891 1.52661 10.2285C1.52661 10.2285 1.52679 10.2287 1.52696 10.2287C1.52731 10.2289 1.52766 10.229 1.52801 10.2292C1.58022 10.2597 2.86699 11.008 3.71964 11.478C3.71526 11.8028 3.72209 12.0061 4.70245 12.6837C5.48117 13.222 12.9637 18.6476 16.0083 20.8562L16.0085 20.8566C16.7967 21.4283 17.2874 21.7845 17.2874 21.7845H17.2875Z" fill="url(#paint4_linear_22_1865)"/>
<path d="M14.532 14.8114C11.9908 14.3995 6.02439 12.26 5.97797 12.2434C5.97779 12.2432 5.97762 12.2432 5.97762 12.2432C5.48113 11.9845 1.62258 10.2712 1.52815 10.2293C1.5278 10.2291 1.52745 10.2289 1.5271 10.2288L3.47328 10.7275L9.01225 12.18L9.82566 12.406C9.82566 12.406 10.2873 12.6422 10.9299 12.9709C11.3234 13.1724 11.7846 13.4084 12.2494 13.6457V13.646C12.7056 13.8791 13.1646 14.1136 13.5656 14.3185H13.5658C13.9654 14.5227 14.3075 14.6972 14.532 14.8114Z" fill="#01142A"/>
<path d="M13.5656 14.3185C13.1646 14.1136 12.7056 13.8791 12.2496 13.646V13.6457L9.96741 10.5356L13.5656 14.3185Z" fill="#1B5B79"/>
<path d="M17.2875 12.6729L15.7541 11.7824L15.753 11.7819L7.21167 6.8219L5.84747 5.05994L11.5678 8.29049L17.2875 12.6729Z" fill="#1C85A6"/>
<path d="M5.84749 5.05989L7.21169 6.82186L4.08999 4.92602L4.08981 4.92585L0.747192 0L11.5678 8.29045L5.84749 5.05989Z" fill="url(#paint5_linear_22_1865)"/>
<path d="M4.08981 4.92585L1.61753 3.4247L1.61736 3.42452L0.747192 0L4.08981 4.92585Z" fill="#1B4B70"/>
<path d="M5.84747 7.51611L2.1981 5.70947L1.85718 4.36816L5.71047 7.31418L5.84747 7.51611Z" fill="#17496C"/>
<path d="M16.6162 22.0465L15.2897 22.5642C15.2897 22.5642 14.0241 21.4619 12.2496 19.9036L16.6162 22.0465Z" fill="#1B8EAE"/>
<path d="M9.0123 12.1799L3.47333 10.7275L2.19812 5.70947L5.8475 7.51612L9.0123 12.1799Z" fill="url(#paint6_linear_22_1865)"/>
<path d="M10.9299 12.9709C10.2873 12.6422 9.82572 12.406 9.82572 12.406L9.01231 12.18L5.84751 7.51614L5.71051 7.31421L7.15547 8.40769L10.9299 12.9709Z" fill="url(#paint7_linear_22_1865)"/>
<path d="M15.753 11.7819L7.99915 7.67119L7.21167 6.8219L15.753 11.7819Z" fill="#197597"/>
<path d="M20.5657 15.1843L17.2875 12.6728L15.7541 11.7823L15.753 11.7818L7.99915 7.67114L12.878 12.9331L14.6977 14.8955C14.7476 14.9208 14.7827 14.9384 14.8004 14.9473C15.0814 15.0862 15.4345 15.2386 15.7155 15.5368C15.9966 15.835 19.6925 19.7152 19.6925 19.7152L22.9101 16.2957L20.5657 15.1843Z" fill="url(#paint8_linear_22_1865)"/>
<path d="M9.96741 10.5356L13.5656 14.3185H13.5658C13.9654 14.5227 14.3076 14.6972 14.532 14.8114C14.5321 14.8115 14.5323 14.8115 14.5325 14.8115L14.5328 14.8119C14.5985 14.8453 14.6539 14.8734 14.6977 14.8955L12.878 12.9332L9.96741 10.5356Z" fill="#1B6685"/>
<path d="M12.2494 13.6456C11.7847 13.4084 11.3234 13.1723 10.9299 12.9709L7.15546 8.40771L9.96743 10.5356L12.2494 13.6456Z" fill="#195170"/>
<path d="M5.71051 7.3142L1.85721 4.36818L1.61755 3.42468L4.08983 4.92583L4.09001 4.92601L5.71051 7.3142Z" fill="#0E3354"/>
<path d="M1.85716 4.36819L0.173584 2.81006L1.61732 3.42451L1.6175 3.42469L1.85716 4.36819Z" fill="#36597A"/>
<path d="M4.08997 4.92603L5.71047 7.31422L7.15543 8.4077L9.96215 10.5316L6.3818 6.3179L4.08997 4.92603Z" fill="#124E6E"/>
<path d="M12.878 12.9331L7.99919 7.67112L7.21171 6.82183L6.38184 6.31787L9.96219 10.5316L9.96744 10.5356L12.878 12.9331Z" fill="#145877"/>
<path d="M17.7536 18.9683C16.542 18.3703 14.6448 17.4206 13.395 16.7294C13.2491 16.6487 13.0982 16.5651 12.9427 16.4792L12.9411 16.4781H12.9409L11.5282 14.3303C12.3248 14.5487 12.9893 14.7089 13.5658 14.8019L17.7536 18.9683Z" fill="url(#paint9_linear_22_1865)"/>
<path d="M18.9103 19.5351C18.9103 19.5351 18.4429 19.3087 17.7535 18.9684L13.5658 14.802C13.9444 14.8559 14.2855 14.8844 14.6012 14.8856L18.9103 19.5351Z" fill="#053853"/>
<path d="M14.6012 14.8857C14.2855 14.8845 13.9444 14.8559 13.5658 14.802C12.9892 14.709 12.3247 14.5488 11.5281 14.3304C10.994 14.1841 10.4005 14.0114 9.73438 13.8156C7.44903 13.1433 6.00039 12.2573 5.97797 12.2434C6.02439 12.26 11.9908 14.3995 14.532 14.8114C14.5323 14.8115 14.5325 14.8117 14.5328 14.8119L14.6012 14.8857Z" fill="#032540"/>
<path d="M16.0085 20.8562C12.9639 18.6476 5.48135 13.222 4.70264 12.6837C3.72227 12.0061 3.71544 11.8027 3.71982 11.478C3.95493 11.6076 4.1571 11.716 4.29129 11.7823C4.92197 12.0942 5.90917 12.3923 7.2117 13.2055C8.41701 13.958 11.0075 15.4069 12.9409 16.478H12.9411L16.0085 20.8562Z" fill="url(#paint10_linear_22_1865)"/>
<path d="M12.9409 16.478C11.0075 15.4069 8.41701 13.9581 7.2117 13.2056C5.90917 12.3923 4.92197 12.0943 4.29129 11.7824C4.15709 11.716 3.95493 11.6076 3.71982 11.4781C2.86717 11.0081 1.5804 10.2597 1.5282 10.2292C1.62263 10.2712 5.48118 11.9845 5.97766 12.2432C5.97766 12.2432 5.97766 12.2432 5.97802 12.2434C6.00044 12.2572 7.44908 13.1432 9.73443 13.8155C10.4005 14.0114 10.994 14.1841 11.5282 14.3304L12.9409 16.478Z" fill="#0F3C60"/>
<path d="M19.3827 20.0446L19.0321 20.4169L12.9427 16.4792C13.0983 16.5651 13.2491 16.6488 13.395 16.7295C14.6448 17.4207 16.542 18.3704 17.7536 18.9684C18.4429 19.3087 18.9103 19.5351 18.9103 19.5351L19.3827 20.0446Z" fill="#127193"/>
<path d="M38.6358 12.248L28.2161 22.2457C26.8729 22.8799 25.3629 23.5588 23.7179 24.2739L32.0126 15.3009C34.6655 14.0767 38.594 12.2673 38.6358 12.248Z" fill="url(#paint11_linear_22_1865)"/>
<path d="M31.3679 15.5986L23.0047 24.5825C22.5455 24.7805 22.0767 24.981 21.5988 25.1838L29.9504 16.2543C30.2535 16.1137 30.7547 15.8818 31.3679 15.5986Z" fill="url(#paint12_linear_22_1865)"/>
<path d="M29.8614 16.2957L29.7982 16.3589L28.366 17.3732H28.3659L21.3334 22.3541L17.7581 23.8288L23.3169 19.3452C23.3169 19.3452 28.4629 16.9463 29.8614 16.2957Z" fill="url(#paint13_linear_22_1865)"/>
<path d="M25.224 20.7791L23.3997 22.7566L20.5143 25.6419H20.5142C18.301 26.5722 15.9137 27.5491 13.4116 28.5569L19.9762 23.2758C20.3768 23.0552 20.7051 22.8344 20.9383 22.6643L25.224 20.7791Z" fill="url(#paint14_linear_22_1865)"/>
<path d="M19.9762 23.2758L13.4116 28.5568C11.399 29.3673 9.31219 30.1977 7.18188 31.0399L15.7008 24.8746L19.9762 23.2758Z" fill="url(#paint15_linear_22_1865)"/>
<path d="M23.3168 19.3452L17.7581 23.8288L16.3348 24.4158L19.5019 22.1238C20.7428 21.24 22.0173 20.31 23.3168 19.3452Z" fill="url(#paint16_linear_22_1865)"/>
<path d="M15.7009 24.8746L7.18191 31.04H7.18174C6.37621 31.3584 5.56456 31.6785 4.74835 31.9997L11.4481 26.6371L15.221 25.0617C15.2377 25.0547 15.2536 25.0463 15.2685 25.0364L15.7009 24.8746Z" fill="url(#paint17_linear_22_1865)"/>
<path d="M19.502 22.1238L16.3349 24.4159L15.7009 24.8746L15.2685 25.0364C16.6239 24.1422 18.0396 23.165 19.502 22.1238Z" fill="#339CBC"/>
<path d="M29.9367 16.2607L29.7982 16.3589L29.8614 16.2957C29.8849 16.2848 29.9099 16.273 29.9367 16.2607Z" fill="#2D6F8F"/>
<path d="M29.9504 16.2543L21.5988 25.1838H21.5986C21.2421 25.3353 20.8807 25.4879 20.5143 25.6418L23.3997 22.7566L29.7982 16.3589L29.9367 16.2607L29.9374 16.2603C29.9416 16.2584 29.946 16.2564 29.9504 16.2543Z" fill="url(#paint18_linear_22_1865)"/>
<path d="M29.7982 16.3589L23.3997 22.7566L25.224 20.779L28.3658 17.3734L28.366 17.3732L29.7982 16.3589Z" fill="#1A719B"/>
<path d="M28.3658 17.3734L25.224 20.7791L20.9383 22.6643C21.192 22.4792 21.3333 22.3542 21.3333 22.3542L28.3658 17.3734Z" fill="#168EB9"/>
<path d="M32.0126 15.3009L23.7179 24.2739C23.483 24.376 23.2452 24.4789 23.0047 24.5825L31.3679 15.5986C31.5715 15.5046 31.7875 15.4048 32.0126 15.3009Z" fill="url(#paint19_linear_22_1865)"/>
<path d="M21.3334 22.3541C21.3334 22.3541 21.192 22.4792 20.9383 22.6643C20.7052 22.8344 20.3769 23.0552 19.9762 23.2758L15.7009 24.8746L16.3349 24.4159L17.7581 23.8288L21.3334 22.3541Z" fill="url(#paint20_linear_22_1865)"/>
<path d="M12.5075 22.4088L8.04191 27.6448C5.51269 28.7728 2.816 29.8973 0 31.0193C0 31.0193 10.0154 24.1703 12.1543 22.6658C12.2706 22.5839 12.3885 22.498 12.5075 22.4088Z" fill="url(#paint21_linear_22_1865)"/>
<path d="M13.442 21.6604L8.68137 27.358H8.6812C8.46939 27.4537 8.25636 27.5493 8.04193 27.6449L12.5075 22.4089C12.815 22.178 13.1293 21.9247 13.442 21.6604Z" fill="#2A4171"/>
<path d="M16.1479 19.1259L11.8835 25.8639C10.8521 26.3627 9.78345 26.8607 8.68134 27.3579L13.4419 21.6604C14.468 20.7931 15.4748 19.8087 16.1479 19.1259Z" fill="url(#paint22_linear_22_1865)"/>
<path d="M18.094 17.119L14.1585 24.7304H14.1583C13.4227 25.1088 12.6638 25.4865 11.8835 25.8639L16.1479 19.1259C16.6502 18.6164 16.9666 18.2747 16.9666 18.2747L18.094 17.119Z" fill="url(#paint23_linear_22_1865)"/>
<path d="M18.5109 16.6915C17.3847 18.993 16.5827 20.1585 16.281 20.7277C15.9795 21.2968 14.6502 24.1793 14.3755 24.6055C14.3755 24.6056 14.3753 24.6056 14.3753 24.6058C14.2399 24.6839 14.1635 24.7276 14.1584 24.7303L18.0939 17.1189L18.5109 16.6915Z" fill="#3E7CA7"/>
<path d="M21.0888 14.049L17.2972 22.2679L15.8053 23.768C15.1578 24.1528 14.6476 24.4488 14.3755 24.6055C14.6502 24.1793 15.9796 21.2968 16.2811 20.7278C16.5828 20.1585 17.3848 18.993 18.5109 16.6916C18.5109 16.6914 18.5111 16.6914 18.5111 16.6912L21.0888 14.049Z" fill="url(#paint24_linear_22_1865)"/>
<path d="M37.7381 1.99683L34.3036 5.40559C34.3036 5.40559 32.613 6.96614 31.5161 8.07746C31.5159 8.0778 31.5158 8.0778 31.5158 8.0778C30.9968 8.60359 29.4406 10.1447 27.9449 11.6227C26.279 13.2688 24.6879 14.8364 24.6879 14.8364L20.9879 18.5568L23.2431 11.8406V11.8402L26.2282 8.78041L37.7381 1.99683Z" fill="url(#paint25_linear_22_1865)"/>
<path d="M37.7381 1.99683L26.2281 8.78041L27.1277 7.85977L27.1281 7.85959L36.5358 2.3231L36.5361 2.32293L37.7381 1.99683Z" fill="#3C97B3"/>
<path d="M36.5358 2.32312L27.1281 7.85961L31.0956 3.79933L36.5358 2.32312Z" fill="url(#paint26_linear_22_1865)"/>
<path d="M31.0956 3.79932L27.1281 7.85959L27.1278 7.85977L22.2452 10.8423L27.3562 4.814L27.3564 4.81382L31.0956 3.79932Z" fill="url(#paint27_linear_22_1865)"/>
<path d="M27.3562 4.81396L22.2452 10.8423L21.7813 11.3894L20.9586 12.0535L21.6259 11.3759L25.5836 5.29489L27.3562 4.81396Z" fill="url(#paint28_linear_22_1865)"/>
<path d="M27.1277 7.85974L26.2281 8.78038L21.7813 11.3894L22.2452 10.8423L27.1277 7.85974Z" fill="#7EE0EE"/>
<path d="M40 1.66516C39.9777 1.68854 38.5403 3.19506 36.4904 5.33231C35.3501 5.69219 31.5753 8.04072 31.5164 8.07727C31.5555 8.0428 33.4421 6.38786 34.3035 5.7173C35.1583 5.0521 36.6975 3.84103 36.7535 3.7967C36.7546 3.79601 36.7551 3.79566 36.7551 3.79566L40 1.66516Z" fill="url(#paint29_linear_22_1865)"/>
<path d="M36.4904 5.33228C35.8016 6.05064 35.0433 6.84035 34.2464 7.66904L27.9448 11.6226C29.4406 10.1447 30.9968 8.60353 31.5157 8.07775C31.5157 8.07775 31.5159 8.07775 31.5161 8.0774C31.5161 8.0774 31.5162 8.07734 31.5164 8.07723C31.5753 8.04069 35.3501 5.69215 36.4904 5.33228Z" fill="url(#paint30_linear_22_1865)"/>
<path d="M34.2464 7.66907C34.1008 7.8206 33.9538 7.97352 33.8056 8.12748L27.9448 11.6227L34.2464 7.66907Z" fill="#1AA2BC"/>
<path d="M33.8056 8.12744C30.8633 11.1853 27.4843 14.6786 25.1313 17.0547C23.8561 18.3423 22.9023 19.0541 22.396 19.4536C20.659 20.8247 17.6654 22.6624 15.8052 23.768L17.2972 22.2678L17.9012 21.6603L20.6415 18.9051V18.9048L20.9879 18.5567L24.6879 14.8364C24.6879 14.8364 26.2789 13.2687 27.9448 11.6226L33.8056 8.12744Z" fill="url(#paint31_linear_22_1865)"/>
<path d="M21.3379 13.7935L17.9012 21.6603L17.2972 22.2678L21.0888 14.0489L21.089 14.0486L21.3379 13.7935Z" fill="#67CDE4"/>
<path d="M23.0481 12.0404L20.6417 18.9049L20.6416 18.9052L17.9012 21.6604L21.3379 13.7935L23.0481 12.0404Z" fill="#83E1F0"/>
<path d="M23.2431 11.8406L20.9879 18.5568L20.6417 18.9049L23.0481 12.0404L23.0483 12.0401L23.2431 11.8406Z" fill="#88E8F4"/>
<path d="M36.7536 3.79675C36.6975 3.84109 35.1583 5.05216 34.3036 5.71735C33.4421 6.38792 31.5555 8.04286 31.5165 8.07732C31.5165 8.07732 31.5163 8.07738 31.5161 8.07749C32.613 6.96618 34.3036 5.40562 34.3036 5.40562L36.7536 3.79675Z" fill="#12425B"/>
</g>
<defs>
<linearGradient id="paint0_linear_22_1865" x1="30.7081" y1="22.1579" x2="35.4687" y2="33.0752" gradientUnits="userSpaceOnUse">
<stop stop-color="#0B8AAF"/>
<stop offset="1" stop-color="#217CA4"/>
</linearGradient>
<linearGradient id="paint1_linear_22_1865" x1="20.0946" y1="17.6906" x2="30.0884" y2="28.5399" gradientUnits="userSpaceOnUse">
<stop stop-color="#15A5C5"/>
<stop offset="0.12" stop-color="#12B7D3"/>
<stop offset="0.3" stop-color="#0ECEE6"/>
<stop offset="0.41" stop-color="#0DD7ED"/>
<stop offset="0.54" stop-color="#0DD1E8"/>
<stop offset="0.7" stop-color="#0FC3DB"/>
<stop offset="0.88" stop-color="#11AAC6"/>
<stop offset="1" stop-color="#1495B4"/>
</linearGradient>
<linearGradient id="paint2_linear_22_1865" x1="32.0935" y1="23.0885" x2="35.019" y2="29.6194" gradientUnits="userSpaceOnUse">
<stop stop-color="#0DAFCE"/>
<stop offset="1" stop-color="#1E83AB"/>
</linearGradient>
<linearGradient id="paint3_linear_22_1865" x1="29.5096" y1="21.4168" x2="32.0463" y2="30.5197" gradientUnits="userSpaceOnUse">
<stop stop-color="#099EBE"/>
<stop offset="1" stop-color="#1C81A7"/>
</linearGradient>
<linearGradient id="paint4_linear_22_1865" x1="1.49297" y1="10.4883" x2="16.4408" y2="22.4203" gradientUnits="userSpaceOnUse">
<stop stop-color="#285377"/>
<stop offset="0.05" stop-color="#27567B"/>
<stop offset="0.34" stop-color="#256B92"/>
<stop offset="0.52" stop-color="#25739B"/>
<stop offset="0.69" stop-color="#23789E"/>
<stop offset="0.88" stop-color="#2086A9"/>
<stop offset="1" stop-color="#1D93B2"/>
</linearGradient>
<linearGradient id="paint5_linear_22_1865" x1="0.0565949" y1="0.686844" x2="10.8597" y2="8.9999" gradientUnits="userSpaceOnUse">
<stop stop-color="#26688C"/>
<stop offset="0.42" stop-color="#227296"/>
<stop offset="1" stop-color="#2082A2"/>
</linearGradient>
<linearGradient id="paint6_linear_22_1865" x1="6.11659" y1="11.1563" x2="3.69665" y2="5.32191" gradientUnits="userSpaceOnUse">
<stop stop-color="#193659"/>
<stop offset="0.38" stop-color="#18385B"/>
<stop offset="0.59" stop-color="#173F63"/>
<stop offset="0.76" stop-color="#154D71"/>
<stop offset="0.9" stop-color="#135F84"/>
<stop offset="1" stop-color="#117196"/>
</linearGradient>
<linearGradient id="paint7_linear_22_1865" x1="6.25044" y1="7.74665" x2="9.8782" y2="12.5645" gradientUnits="userSpaceOnUse">
<stop stop-color="#155272"/>
<stop offset="0.63" stop-color="#174969"/>
<stop offset="0.99" stop-color="#1A4262"/>
</linearGradient>
<linearGradient id="paint8_linear_22_1865" x1="22.4714" y1="18.9471" x2="8.58816" y2="7.51402" gradientUnits="userSpaceOnUse">
<stop stop-color="#156786"/>
<stop offset="0.32" stop-color="#1388A9"/>
<stop offset="0.57" stop-color="#1384A5"/>
<stop offset="0.77" stop-color="#137B9B"/>
<stop offset="0.97" stop-color="#146A89"/>
<stop offset="1" stop-color="#156786"/>
</linearGradient>
<linearGradient id="paint9_linear_22_1865" x1="12.1296" y1="14.7183" x2="17.7523" y2="19.4374" gradientUnits="userSpaceOnUse">
<stop stop-color="#063350"/>
<stop offset="1" stop-color="#117196"/>
</linearGradient>
<linearGradient id="paint10_linear_22_1865" x1="4.3025" y1="11.1983" x2="15.8853" y2="20.0824" gradientUnits="userSpaceOnUse">
<stop stop-color="#276990"/>
<stop offset="0.1" stop-color="#246C93"/>
<stop offset="0.46" stop-color="#1E759C"/>
<stop offset="0.66" stop-color="#1E7A9F"/>
<stop offset="0.89" stop-color="#1E88AA"/>
<stop offset="1" stop-color="#1E92B1"/>
</linearGradient>
<linearGradient id="paint11_linear_22_1865" x1="23.6762" y1="23.8321" x2="37.9843" y2="12.3273" gradientUnits="userSpaceOnUse">
<stop offset="0.02" stop-color="#083158"/>
<stop offset="0.41" stop-color="#073252"/>
<stop offset="1" stop-color="#112438"/>
</linearGradient>
<linearGradient id="paint12_linear_22_1865" x1="21.7619" y1="25.2408" x2="31.1908" y2="15.3737" gradientUnits="userSpaceOnUse">
<stop offset="0.02" stop-color="#188AC3"/>
<stop offset="0.27" stop-color="#1787B8"/>
<stop offset="0.53" stop-color="#1786B4"/>
<stop offset="0.88" stop-color="#14597F"/>
<stop offset="1" stop-color="#144A6D"/>
</linearGradient>
<linearGradient id="paint13_linear_22_1865" x1="17.2935" y1="24.3578" x2="27.681" y2="16.9467" gradientUnits="userSpaceOnUse">
<stop offset="0.2" stop-color="#0B4F75"/>
<stop offset="0.3" stop-color="#09496E"/>
<stop offset="0.44" stop-color="#053A5D"/>
<stop offset="0.48" stop-color="#043557"/>
<stop offset="0.98" stop-color="#22658B"/>
<stop offset="1" stop-color="#24688E"/>
</linearGradient>
<linearGradient id="paint14_linear_22_1865" x1="13.8075" y1="29.0558" x2="25.0493" y2="20.8414" gradientUnits="userSpaceOnUse">
<stop offset="0.02" stop-color="#0C9AC0"/>
<stop offset="0.04" stop-color="#0C9FC4"/>
<stop offset="0.11" stop-color="#10B1D1"/>
<stop offset="0.19" stop-color="#12BEDB"/>
<stop offset="0.3" stop-color="#13C5E1"/>
<stop offset="0.53" stop-color="#14C8E3"/>
<stop offset="0.66" stop-color="#16B2D4"/>
<stop offset="0.79" stop-color="#18A4CB"/>
<stop offset="0.9" stop-color="#19A0C8"/>
</linearGradient>
<linearGradient id="paint15_linear_22_1865" x1="7.45868" y1="31.1355" x2="19.8804" y2="23.2199" gradientUnits="userSpaceOnUse">
<stop offset="0.08" stop-color="#0C9AC0"/>
<stop offset="0.53" stop-color="#14C8E3"/>
<stop offset="0.69" stop-color="#15BEDC"/>
<stop offset="0.95" stop-color="#18A5CB"/>
<stop offset="1" stop-color="#19A0C8"/>
</linearGradient>
<linearGradient id="paint16_linear_22_1865" x1="16.2881" y1="24.6744" x2="23.4072" y2="19.3712" gradientUnits="userSpaceOnUse">
<stop stop-color="#2AA1C6"/>
<stop offset="0.12" stop-color="#2698BC"/>
<stop offset="0.33" stop-color="#1D80A1"/>
<stop offset="0.6" stop-color="#0F5975"/>
<stop offset="0.82" stop-color="#01344C"/>
</linearGradient>
<linearGradient id="paint17_linear_22_1865" x1="15.8007" y1="24.5238" x2="5.00217" y2="31.8751" gradientUnits="userSpaceOnUse">
<stop offset="0.11" stop-color="#30D4EE"/>
<stop offset="0.52" stop-color="#2BBCDF"/>
<stop offset="0.66" stop-color="#28ADD0"/>
<stop offset="1" stop-color="#228EB1"/>
</linearGradient>
<linearGradient id="paint18_linear_22_1865" x1="20.921" y1="25.5563" x2="29.1477" y2="16.6386" gradientUnits="userSpaceOnUse">
<stop offset="0.02" stop-color="#147CB3"/>
<stop offset="0.14" stop-color="#1672A4"/>
<stop offset="0.31" stop-color="#196A97"/>
<stop offset="0.53" stop-color="#1A6690"/>
<stop offset="1" stop-color="#1B658E"/>
</linearGradient>
<linearGradient id="paint19_linear_22_1865" x1="23.8835" y1="24.1956" x2="31.6948" y2="14.816" gradientUnits="userSpaceOnUse">
<stop offset="0.02" stop-color="#13406F"/>
<stop offset="0.14" stop-color="#104C7A"/>
<stop offset="0.31" stop-color="#0D5886"/>
<stop offset="0.48" stop-color="#0D5D8A"/>
<stop offset="1" stop-color="#16486B"/>
</linearGradient>
<linearGradient id="paint20_linear_22_1865" x1="15.7454" y1="24.9018" x2="21.277" y2="22.4217" gradientUnits="userSpaceOnUse">
<stop stop-color="#2187AC"/>
<stop offset="0.2" stop-color="#1C7DA2"/>
<stop offset="0.54" stop-color="#116289"/>
<stop offset="0.82" stop-color="#064871"/>
</linearGradient>
<linearGradient id="paint21_linear_22_1865" x1="0.558855" y1="31.441" x2="12.2998" y2="23.5093" gradientUnits="userSpaceOnUse">
<stop stop-color="#181E32"/>
<stop offset="0.33" stop-color="#19233B"/>
<stop offset="0.82" stop-color="#1D3153"/>
</linearGradient>
<linearGradient id="paint22_linear_22_1865" x1="9.03189" y1="27.9026" x2="16.6089" y2="19.0606" gradientUnits="userSpaceOnUse">
<stop offset="0.19" stop-color="#36487C"/>
<stop offset="0.39" stop-color="#395185"/>
<stop offset="0.73" stop-color="#436C9F"/>
<stop offset="0.94" stop-color="#4B80B2"/>
</linearGradient>
<linearGradient id="paint23_linear_22_1865" x1="11.8493" y1="27.1933" x2="17.3095" y2="18.1513" gradientUnits="userSpaceOnUse">
<stop offset="0.19" stop-color="#36487C"/>
<stop offset="0.39" stop-color="#395185"/>
<stop offset="0.73" stop-color="#436C9F"/>
<stop offset="0.94" stop-color="#4B80B2"/>
</linearGradient>
<linearGradient id="paint24_linear_22_1865" x1="14.5474" y1="25.2639" x2="20.53" y2="14.7141" gradientUnits="userSpaceOnUse">
<stop offset="0.12" stop-color="#569EC7"/>
<stop offset="0.42" stop-color="#61B5D6"/>
<stop offset="0.72" stop-color="#69C7E1"/>
<stop offset="0.94" stop-color="#6DCEE6"/>
</linearGradient>
<linearGradient id="paint25_linear_22_1865" x1="34.6974" y1="3.47443" x2="21.9201" y2="15.494" gradientUnits="userSpaceOnUse">
<stop stop-color="#2891AC"/>
<stop offset="0.09" stop-color="#3FA3BA"/>
<stop offset="0.26" stop-color="#65C3D3"/>
<stop offset="0.43" stop-color="#81DAE6"/>
<stop offset="0.57" stop-color="#92E8F1"/>
<stop offset="0.67" stop-color="#99EDF5"/>
<stop offset="0.78" stop-color="#95EAF3"/>
<stop offset="0.89" stop-color="#89E4F0"/>
<stop offset="0.99" stop-color="#75D9EB"/>
<stop offset="1" stop-color="#74D8EB"/>
</linearGradient>
<linearGradient id="paint26_linear_22_1865" x1="26.5178" y1="7.35651" x2="35.9478" y2="1.67707" gradientUnits="userSpaceOnUse">
<stop stop-color="#5BBED3"/>
<stop offset="0.45" stop-color="#469BB5"/>
<stop offset="0.74" stop-color="#3C8BA8"/>
</linearGradient>
<linearGradient id="paint27_linear_22_1865" x1="22.01" y1="10.603" x2="30.5397" y2="3.48585" gradientUnits="userSpaceOnUse">
<stop stop-color="#8BE6F2"/>
<stop offset="0.19" stop-color="#86E1EE"/>
<stop offset="0.4" stop-color="#78D4E4"/>
<stop offset="0.63" stop-color="#61BFD3"/>
<stop offset="0.74" stop-color="#54B3CA"/>
</linearGradient>
<linearGradient id="paint28_linear_22_1865" x1="21.5735" y1="11.7423" x2="26.597" y2="4.72089" gradientUnits="userSpaceOnUse">
<stop stop-color="#AFF0F9"/>
<stop offset="0.16" stop-color="#AAEDF6"/>
<stop offset="0.34" stop-color="#9CE5F0"/>
<stop offset="0.54" stop-color="#84D8E6"/>
<stop offset="0.74" stop-color="#65C7D9"/>
</linearGradient>
<linearGradient id="paint29_linear_22_1865" x1="32.6373" y1="7.56499" x2="40.1684" y2="1.7618" gradientUnits="userSpaceOnUse">
<stop offset="0.14" stop-color="#197392"/>
<stop offset="0.2" stop-color="#1A7695"/>
<stop offset="0.56" stop-color="#2287A4"/>
<stop offset="0.88" stop-color="#2391AA"/>
</linearGradient>
<linearGradient id="paint30_linear_22_1865" x1="27.9448" y1="8.47745" x2="36.4904" y2="8.47745" gradientUnits="userSpaceOnUse">
<stop stop-color="#18D6E6"/>
<stop offset="0.17" stop-color="#1AC9DB"/>
<stop offset="0.45" stop-color="#1DB9CE"/>
<stop offset="0.66" stop-color="#20A5BE"/>
<stop offset="0.88" stop-color="#2496B2"/>
</linearGradient>
<linearGradient id="paint31_linear_22_1865" x1="17.0144" y1="23.9919" x2="32.9852" y2="7.13728" gradientUnits="userSpaceOnUse">
<stop offset="0.11" stop-color="#23A4C3"/>
<stop offset="0.16" stop-color="#21B0CB"/>
<stop offset="0.35" stop-color="#1EDBEA"/>
<stop offset="0.45" stop-color="#1DECF6"/>
<stop offset="0.71" stop-color="#1ECADC"/>
<stop offset="0.88" stop-color="#1FBBD1"/>
</linearGradient>
<clipPath id="clip0_22_1865">
<rect width="40" height="34" fill="white"/>
</clipPath>
</defs>
</svg>
